<svg width="300" height="312" viewBox="0 0 1301 1355" fill="none" xmlns="http://www.w3.org/2000/svg">
<path d="M1023.85 465.839C777.287 305.418 578 604.587 634.058 733.866C512.855 641.153 182.668 747.763 261.341 1025.07C348.992 1333.91 948.712 1229.09 1006.37 1241.7C1017.02 1190.29 1289.07 638.43 1023.85 465.839Z" fill="#DF8590"/>
<path d="M1017.19 103.54C944.001 55.8004 885.052 144.508 901.738 182.911C865.753 155.331 767.894 186.816 791.358 269.17C817.5 360.888 995.285 330.068 1012.39 333.837C1015.52 318.583 1095.92 154.901 1017.19 103.54Z" fill="#DF8590"/>
<path d="M725.807 190.899C691.107 168.262 663.164 210.316 671.076 228.524C654.015 215.447 607.623 230.37 618.751 269.415C631.148 312.9 715.431 298.296 723.539 300.084C725.024 292.852 763.134 215.253 725.807 190.899Z" fill="#DF8590"/>
<path d="M208.869 750.894C174.169 728.257 146.226 770.312 154.139 788.519C137.077 775.442 90.6857 790.365 101.813 829.411C114.21 872.896 198.493 858.292 206.602 860.079C208.086 852.847 246.196 775.248 208.869 750.894Z" fill="#DF8590"/>
<path d="M440.668 1139.22C440.071 1138.4 439.467 1137.41 438.854 1136.25C439.052 1136.02 439.546 1135.54 440.335 1134.8L441.798 1133.24C443.24 1131.74 444.256 1130.51 444.846 1129.55L438.14 1119.33L432.151 1111.49L430.372 1108.98L422.407 1097.87L419.856 1094.47L418.614 1092.78C416.324 1089.66 414.561 1087.72 413.326 1086.97C413.111 1087.01 412.836 1087.13 412.502 1087.33C412.246 1087.48 411.968 1087.62 411.667 1087.76C410.305 1088.44 409.119 1089.11 408.11 1089.77L407.403 1090.04C406.611 1090.5 405.995 1090.79 405.558 1090.91C404.921 1090.21 404.525 1089.75 404.372 1089.54C404.141 1089.22 403.902 1088.73 403.655 1088.07C404.136 1087.51 404.705 1086.99 405.362 1086.51C406.937 1085.36 408.613 1084.23 410.389 1083.13C415.391 1079.99 420.688 1076.37 426.28 1072.27L438.816 1062.77L448.207 1056.01C455.19 1050.89 460 1047.1 462.638 1044.64C463.671 1043.69 464.397 1043.05 464.817 1042.74C465.316 1042.38 466.168 1041.83 467.374 1041.11C468.118 1042.18 468.735 1043.16 469.227 1044.05C466.183 1047.33 464.337 1049.72 463.69 1051.2C463.865 1051.88 464.847 1053.44 466.637 1055.88L467.214 1056.67L468.697 1058.61L475.174 1067.36L480.216 1074.32L484.076 1079.42L488.176 1085.01L491.661 1089.6C492.335 1090.52 493.078 1091.59 493.892 1092.81C494.559 1092.56 495.167 1092.32 495.716 1092.08C498.569 1090.79 500.828 1089.97 502.492 1089.59L504.631 1092.26L502.809 1093.66C502.468 1093.91 501.989 1094.22 501.373 1094.59L498.304 1096.6C495.978 1097.94 492.452 1100.34 487.727 1103.81C486.178 1104.94 484.785 1106.05 483.55 1107.11L479.675 1110.5C479.281 1110.79 478.777 1111.04 478.163 1111.24C477.265 1109.96 476.705 1109.06 476.483 1108.54L478.699 1105.95L480.033 1104.54C481.494 1103.07 482.407 1102.06 482.771 1101.51C482.169 1099.97 476.354 1091.68 465.326 1076.64L452.59 1059.76C451.692 1060.3 450.603 1061.02 449.324 1061.91L430.907 1075.11L430.524 1075.33C430.426 1075.36 430.325 1075.42 430.22 1075.49C430.036 1075.63 429.835 1075.8 429.618 1076L427.915 1077.31C426.471 1078.36 425.606 1079.14 425.321 1079.63C427.191 1082.46 428.877 1084.89 430.378 1086.94L445.364 1107.14L453.707 1118.52C454.765 1119.96 455.517 1120.9 455.961 1121.34C456.254 1121.41 456.809 1121.21 457.628 1120.73L459.642 1119.68C460.48 1119.22 461.302 1118.8 462.107 1118.41L463.795 1117.66C464.175 1117.46 464.55 1117.37 464.921 1117.38C465.443 1117.93 465.78 1118.3 465.934 1118.51C466.184 1118.85 466.478 1119.37 466.816 1120.05L464.403 1121.88C463.406 1122.61 461.943 1123.56 460.016 1124.73L457.034 1126.85L454.881 1128.13L450.718 1131.12C449.668 1131.89 448.527 1132.87 447.297 1134.05L444.881 1136.13L440.668 1139.22ZM492.419 1061.32C490.032 1058.06 488.266 1054.33 487.121 1050.13C486.307 1047.09 486.006 1043.98 486.217 1040.8C486.427 1037.62 487.221 1034.35 488.599 1031C489.957 1027.62 491.696 1024.65 493.814 1022.09C495.912 1019.5 498.563 1017.04 501.766 1014.69C507.227 1010.69 512.716 1008.24 518.234 1007.34C523.752 1006.44 528.946 1006.89 533.816 1008.69C540.138 1011.04 545.128 1014.71 548.784 1019.69C554.231 1027.12 556.365 1035.35 555.186 1044.36C554.033 1053.36 548.954 1061.16 539.949 1067.76C537.718 1069.4 535.525 1070.79 533.37 1071.92C531.746 1072.79 530.248 1073.44 528.876 1073.88C526.399 1074.69 525.005 1075.13 524.691 1075.2C520.637 1075.67 517.117 1075.68 514.134 1075.25C511.15 1074.81 508.265 1073.96 505.479 1072.69C503.938 1071.97 501.592 1070.33 498.442 1067.8C496.409 1066.18 494.401 1064.02 492.419 1061.32ZM503.128 1019.68C500.844 1021.36 499.217 1023.38 498.247 1025.74C497.258 1028.08 496.788 1030.22 496.839 1032.17C496.94 1035.44 497.628 1038.61 498.903 1041.67C500.159 1044.71 502.144 1048.07 504.858 1051.78C506.513 1054.03 507.788 1055.58 508.684 1056.42C508.968 1056.69 509.441 1057.17 510.104 1057.86C511.765 1059.63 513.08 1060.84 514.049 1061.51C517.622 1064.01 519.934 1065.49 520.984 1065.93C522.753 1066.69 524.893 1067.16 527.404 1067.33C528.692 1067.44 530.296 1067.23 532.216 1066.71C534.117 1066.17 535.815 1065.35 537.311 1064.25C540.147 1062.17 542.291 1059.59 543.744 1056.51C545.204 1053.38 545.505 1049.69 544.646 1045.43C543.787 1041.18 541.491 1036.5 537.758 1031.41C536.218 1029.31 533.985 1026.57 531.06 1023.18L530.314 1022.58C530.082 1022.43 529.556 1021.98 528.737 1021.25C524.609 1017.66 520.339 1015.74 515.928 1015.51C511.542 1015.25 507.276 1016.64 503.128 1019.68ZM610.499 1015.02L592.269 1028.14C591.508 1028.7 590.271 1029.54 588.56 1030.68L584.918 1033.22C582.319 1035.13 580.783 1036.86 580.311 1038.42C579.864 1039.96 580.139 1043.08 581.136 1047.8C581.587 1050.01 581.798 1051.29 581.768 1051.64C581.143 1052.22 580.726 1052.58 580.516 1052.74C580.227 1052.95 579.805 1053.12 579.25 1053.24C578.904 1052.77 578.51 1052.15 578.069 1051.38C577.539 1050.44 576.659 1049.05 575.429 1047.2C573.412 1044.12 571.895 1041.42 570.879 1039.1C571.033 1038.7 571.754 1037.95 573.042 1036.84C574.435 1035.66 575.247 1034.7 575.476 1033.97C575.732 1033.22 575.563 1031.36 574.97 1028.41C574.404 1025.43 573.228 1020.14 571.442 1012.53L567.675 995.25L564.21 978.961L562.321 970.356L566.603 967.278C566.74 967.299 567.97 967.931 570.294 969.174C585.84 977.111 599.566 984.686 611.474 991.9C617.354 995.46 621.101 997.516 622.716 998.067C624.338 998.573 626.052 998.488 627.856 997.811C629.111 997.375 630.072 997.337 630.738 997.696C631.386 998.029 632.746 999.554 634.819 1002.27L638.011 1006.05C638.821 1006.99 639.634 1007.99 640.449 1009.04C640.02 1009.56 639.343 1010.18 638.417 1010.9C637.302 1010.42 636.137 1009.82 634.921 1009.1C631.822 1007.29 629.457 1006.24 627.826 1005.95C626.24 1005.66 624.535 1005.92 622.71 1006.73C620.884 1007.54 618.002 1009.39 614.064 1012.28L613.277 1012.86L612.124 1013.76L611.208 1014.5L610.499 1015.02ZM570.785 984.131C577.005 1011.94 580.443 1026.29 581.097 1027.19C581.79 1028.13 582.933 1028.12 584.526 1027.15C586.125 1026.14 589.708 1023.6 595.273 1019.52L603.483 1013.62C607.395 1010.75 609.627 1009.04 610.18 1008.47C610.714 1007.88 610.74 1007.25 610.259 1006.59C609.893 1006.1 608.316 1005.07 605.527 1003.52L580.89 989.74C575.417 986.568 572.048 984.698 570.785 984.131ZM631.775 999.358L629.89 996.622C630.274 996.099 631.009 995.257 632.096 994.097C633.829 992.221 634.79 990.972 634.979 990.349C635.194 989.707 635.174 988.551 634.919 986.881L627.602 960.218L618.978 928.882C619.864 928.273 620.7 927.68 621.488 927.103L623.26 925.803L624.134 926.252L642.88 937.454C646.95 939.757 650.796 942.085 654.416 944.435C658.017 946.76 661.015 948.619 663.409 950.012C664.838 950.861 666.917 952.183 669.645 953.977C671.099 954.969 673.053 956.12 675.506 957.43C676.84 958.148 677.705 958.502 678.102 958.493C678.863 958.541 679.817 958.245 680.964 957.607C682.136 956.949 683.513 956.404 685.093 955.972C685.859 956.742 686.397 957.337 686.704 957.757C686.839 957.941 687.038 958.239 687.3 958.652C685.357 960.076 683.15 961.553 680.679 963.082C678.208 964.611 676.04 966.059 674.176 967.426C672.102 968.946 670.625 970.069 669.745 970.795L663.31 976.058L661.438 977.551C660.765 976.632 660.159 975.724 659.622 974.826L663.3 970.676C664.363 969.373 664.932 968.552 665.007 968.214C665.077 967.759 664.987 967.361 664.737 967.02C664.487 966.679 664.161 966.372 663.761 966.101L659.356 963.397L650.587 957.959L635.515 968.947C635.887 970.612 637.007 974.534 638.873 980.713C639.394 982.47 639.838 983.598 640.203 984.097C640.704 984.78 641.244 985.131 641.823 985.15C642.792 985.206 644.207 984.714 646.068 983.673C646.343 983.552 647.38 983.013 649.181 982.056C649.9 982.982 650.395 983.629 650.664 983.996C650.876 984.285 651.071 984.606 651.249 984.96C649.622 986.153 645.573 988.778 639.102 992.836L637.69 994.295C635.978 996.034 634.243 997.549 632.484 998.838L631.775 999.358ZM634.059 963.658C640.26 959.233 643.912 956.616 645.014 955.808L645.97 955.047C643.469 953.288 640.454 951.321 636.922 949.147C633.372 946.947 630.606 945.322 628.625 944.271L634.059 963.658ZM652.203 910.034L649.97 907.07L659.815 900.761L663.999 897.633L665.535 896.507C667.137 895.333 669.577 893.403 672.855 890.717C674.701 889.162 675.874 888.201 676.373 887.835C679.681 885.41 682.309 883.766 684.259 882.902C687.217 881.541 689.867 880.889 692.21 880.947C694.58 880.986 697.092 881.687 699.747 883.051C702.408 884.369 704.413 885.947 705.76 887.785C709.109 892.353 710.388 897.126 709.598 902.105C708.815 907.038 706.231 911.112 701.847 914.326C700.324 915.442 698.733 916.326 697.072 916.979C695.437 917.612 693.746 918.004 692 918.154C691.311 917.489 690.475 916.487 689.494 915.148C690.162 914.739 690.755 914.364 691.273 914.025C691.818 913.666 692.287 913.343 692.681 913.054C694.912 911.418 696.337 909.425 696.955 907.075C697.803 903.991 696.908 900.651 694.271 897.055C692.385 894.482 690.399 892.709 688.313 891.735C686.234 890.717 684.379 890.361 682.748 890.669C680.491 891.113 678.312 892.105 676.212 893.645C674.243 895.088 673.05 896.407 672.633 897.6C672.673 898.095 672.756 898.539 672.882 898.931L686.755 917.277L687.831 918.91L689.162 920.477C689.458 920.825 689.865 921.354 690.385 922.063L692.752 925.292L696.573 930.422L700.998 936.623C701.633 937.489 702.569 938.599 703.804 939.954L712.362 935.194C712.929 935.747 713.347 936.207 713.617 936.575C713.905 936.968 714.244 937.568 714.632 938.373C714.053 938.959 713.593 939.377 713.251 939.628C712.438 940.224 710.834 941.258 708.442 942.73C706.03 944.175 703.38 945.956 700.493 948.073C697.237 950.459 694.293 952.94 691.661 955.516C691.22 955.96 690.48 956.603 689.442 957.445C688.779 956.761 688.313 956.235 688.044 955.867C687.87 955.631 687.627 955.244 687.314 954.707L689.139 952.158C690.427 950.447 691.415 948.794 692.103 947.2C691.781 946.265 691.389 945.483 690.927 944.853C690.735 944.591 690.501 944.298 690.224 943.976C689.601 943.182 688.751 942.049 687.673 940.579L679.443 929.6L669.858 917.434C665.325 911.636 662.832 908.539 662.381 908.143C661.639 907.516 660.891 907.157 660.137 907.064C659.363 906.945 658.384 907.178 657.199 907.764C654.751 908.994 653.085 909.751 652.203 910.034ZM719.719 894.686C717.332 891.43 715.566 887.7 714.42 883.494C713.607 880.458 713.306 877.349 713.516 874.168C713.727 870.986 714.521 867.72 715.899 864.369C717.257 860.991 718.995 858.022 721.113 855.46C723.212 852.872 725.863 850.404 729.065 848.056C734.526 844.053 740.015 841.603 745.533 840.706C751.051 839.809 756.245 840.26 761.115 842.058C767.438 844.406 772.427 848.073 776.084 853.062C781.531 860.491 783.664 868.715 782.485 877.732C781.332 886.731 776.254 894.531 767.249 901.132C765.017 902.768 762.824 904.154 760.67 905.289C759.046 906.157 757.547 906.811 756.175 907.252C753.699 908.058 752.304 908.496 751.991 908.564C747.936 909.034 744.417 909.051 741.433 908.615C738.449 908.178 735.565 907.327 732.779 906.059C731.237 905.333 728.892 903.702 725.742 901.168C723.709 899.55 721.701 897.39 719.719 894.686ZM730.427 853.052C728.143 854.726 726.516 856.746 725.546 859.112C724.557 861.452 724.088 863.592 724.138 865.533C724.239 868.809 724.927 871.977 726.203 875.038C727.459 878.073 729.444 881.441 732.157 885.143C733.812 887.401 735.088 888.948 735.984 889.785C736.267 890.061 736.741 890.542 737.404 891.226C739.064 892.995 740.379 894.211 741.349 894.873C744.922 897.379 747.233 898.853 748.283 899.294C750.052 900.056 752.193 900.525 754.704 900.702C755.992 900.807 757.596 900.6 759.516 900.081C761.416 899.535 763.115 898.714 764.611 897.617C767.446 895.538 769.591 892.957 771.044 889.874C772.504 886.745 772.804 883.054 771.946 878.799C771.087 874.545 768.791 869.871 765.057 864.778C763.517 862.678 761.285 859.935 758.359 856.55L757.614 855.946C757.381 855.794 756.855 855.352 756.037 854.62C751.909 851.027 747.639 849.112 743.227 848.875C738.842 848.619 734.575 850.011 730.427 853.052ZM764.501 828.012L762.102 824.987L763.885 823.62C764.987 822.812 766.263 821.937 767.713 820.996L773.822 816.941C778.022 813.862 782.441 810.42 787.079 806.616C787.246 806.898 787.348 807.065 787.387 807.118L788.263 808.231L789.169 809.383L789.4 809.698C788.293 810.832 786.992 811.948 785.496 813.045C784.157 814.026 783.49 814.878 783.495 815.601C783.5 816.324 784.503 818.05 786.505 820.781C792.625 829.129 796.47 834.181 798.04 835.937C799.635 837.673 801.712 838.633 804.268 838.817C806.825 839.001 809.429 838.122 812.081 836.178C814.155 834.657 815.782 832.637 816.962 830.117C818.168 827.578 818.382 824.979 817.603 822.321C816.832 819.617 813.338 814.025 807.122 805.546C805.851 803.813 804.622 802.494 803.434 801.589C801.992 801.879 800.301 802.655 798.36 803.917C797.008 804.827 796.235 805.313 796.039 805.376L793.42 801.968L801.269 796.819L803.543 795.213L805.265 794.011C806.898 792.935 808.016 792.176 808.62 791.733C809.828 790.848 811.326 789.588 813.115 787.954C814.384 786.822 816.206 785.344 818.583 783.521C818.735 783.894 818.84 784.119 818.898 784.198L819.583 784.967C820.066 785.461 820.327 785.734 820.365 785.787C820.423 785.865 820.547 786.117 820.738 786.543C820.103 787.493 819.201 788.658 818.034 790.039C816.695 791.626 815.786 792.837 815.308 793.671C815.69 794.522 816.458 795.735 817.612 797.31L819.799 800.127L822.631 803.742L827.515 810.817L832.131 817.362L841.794 830.378C844.142 833.581 845.513 835.341 845.907 835.658C847.555 834.934 849.199 834.092 850.837 833.133L853.431 831.716C854.094 832.401 854.628 833.018 855.032 833.57L855.974 834.938L855.255 835.525L848.248 840.42L845.819 841.898C843.551 843.318 842.049 844.298 841.314 844.837C839.949 845.838 838.501 847 836.969 848.325C834.326 850.666 832.362 852.308 831.075 853.251L829.036 850.387C829.248 850.07 829.938 849.222 831.105 847.841C832.675 845.963 833.644 844.587 834.012 843.712C833.958 842.702 833.353 841.41 832.198 839.835L829.081 835.582L822.362 826.582C821.386 833.069 818.037 838.411 812.313 842.606C808.848 845.147 805.534 846.931 802.372 847.957C799.209 848.984 796.463 849.202 794.132 848.61C791.801 848.018 789.859 846.939 788.307 845.372C786.762 843.76 783.93 840.145 779.812 834.527L779.303 833.75L777.696 831.476L775.182 828.294L774.392 827.299C773.153 825.665 772.062 824.81 771.119 824.734C770.157 824.633 768.478 825.399 766.084 827.033C765.375 827.553 764.848 827.879 764.501 828.012ZM861.716 830.547C861.138 829.759 860.534 828.769 859.902 827.578L864.189 823.103C864.697 822.529 865.265 821.789 865.893 820.885L859.188 810.665C856.485 807.197 854.488 804.584 853.199 802.825L852.546 801.851C851.835 800.717 849.892 797.984 846.717 793.653L845.801 792.568L843.454 789.203L840.903 785.805L839.662 784.112C838.546 782.589 837.119 780.891 835.381 779.016C835.22 778.852 834.884 778.614 834.374 778.302C834.106 778.377 833.831 778.498 833.549 778.664C833.294 778.811 833.015 778.955 832.714 779.095C831.556 779.661 830.37 780.329 829.157 781.097L828.451 781.373C827.684 781.813 827.069 782.103 826.605 782.241C825.969 781.538 825.573 781.081 825.419 780.871C825.188 780.556 824.949 780.065 824.703 779.398C825.151 778.908 825.847 778.317 826.793 777.624C827.738 776.931 828.384 776.437 828.733 776.141C832.186 774.134 834.696 772.576 836.265 771.467C836.973 770.947 837.701 770.454 838.449 769.987C839.203 769.474 839.856 769.016 840.407 768.612C841.274 767.976 843.291 766.296 846.459 763.57C846.914 763.034 847.47 762.526 848.126 762.045C849.097 761.333 849.95 760.789 850.683 760.413C851.113 760.945 851.415 761.329 851.588 761.565C851.896 761.985 852.219 762.536 852.557 763.216L846.434 769.4C846.049 770.086 846.039 770.678 846.405 771.177L847.591 772.548L848.093 773.149L849.324 774.91L850.226 776.307L850.457 776.622C850.695 776.892 850.891 777.131 851.045 777.341L854.672 782.371C855.045 782.825 855.318 783.17 855.491 783.406C855.587 783.537 855.869 783.976 856.336 784.724C856.618 785.163 856.922 785.606 857.249 786.052C857.538 786.446 858.261 787.349 859.417 788.761C860.249 788.354 860.923 787.98 861.441 787.641L867.356 783.486L870.191 781.408L877.309 776.251L884.056 771.002C884.948 770.347 885.826 769.563 886.689 768.648C886.087 767.716 884.519 765.495 881.986 761.985L880.766 760.155L875.622 753.633L873.325 751.079C873.112 750.953 872.803 750.917 872.398 750.971C871.095 751.12 868.824 751.876 865.586 753.241C865.01 753.501 864.442 753.717 863.88 753.886C863.259 752.929 862.815 752.104 862.549 751.411C863.108 750.961 863.452 750.688 863.584 750.592L867.432 747.831C870.105 746.356 872.701 744.695 875.222 742.847C875.799 742.424 876.249 742.074 876.571 741.797L881.575 737.887C882.028 737.514 882.468 737.151 882.895 736.798C883.687 735.895 884.581 735.078 885.579 734.346C886.34 733.788 887.288 733.154 888.422 732.444C889.146 733.487 889.764 734.467 890.275 735.384C888.225 737.653 886.906 739.185 886.318 739.98C885.737 740.729 885.21 741.579 884.737 742.531L885.078 743.492L885.569 744.161L886.359 745.156L886.695 745.697C887.047 746.287 887.328 746.726 887.54 747.015L888.262 747.999C889.154 749.162 889.648 749.808 889.745 749.94L893.411 754.941L896.222 758.692L899.81 763.751C900.63 764.926 902.402 767.26 905.124 770.753L909.224 776.345L912.709 780.934C913.344 781.8 914.088 782.87 914.94 784.142C915.606 783.895 916.215 783.651 916.764 783.41C919.617 782.126 921.875 781.298 923.54 780.925L925.679 783.595C924.648 784.391 924.04 784.857 923.857 784.991C922.597 785.915 921.095 786.895 919.352 787.931C917.026 789.273 913.474 791.695 908.696 795.198C906.543 796.776 903.885 798.987 900.722 801.83C900.355 802.099 899.851 802.348 899.21 802.575C898.351 801.348 897.791 800.447 897.531 799.871L900.043 796.939L902.858 794.089C903.115 793.779 903.435 793.363 903.819 792.84C902.549 790.501 900.117 786.855 896.525 781.9L894.111 778.524C892.933 777.248 891.633 775.639 890.208 773.696C889.179 774.329 888.091 775.047 886.942 775.848L868.526 789.046L868.143 789.267L867.838 789.43C867.654 789.564 867.454 789.731 867.237 789.931C866.574 790.457 866.006 790.894 865.533 791.24L864.43 792.049C863.932 792.414 863.435 792.92 862.939 793.566L864.947 796.635L865.322 797.147C865.894 797.817 866.257 798.257 866.411 798.467L875.361 810.675C875.861 811.357 876.411 812.024 877.009 812.675L877.576 812.623L884.029 809.285C884.395 809.178 884.666 809.08 884.843 808.991C885.242 808.82 885.617 808.726 885.969 808.71C886.49 809.256 886.828 809.635 886.982 809.845C887.232 810.186 887.526 810.697 887.864 811.378C886.938 812.097 886.147 812.697 885.49 813.178C884.913 813.602 884.365 813.983 883.847 814.322C883.611 814.496 883.378 814.646 883.149 814.774L877.423 818.608C876.014 819.439 874.128 820.721 871.765 822.453L870.967 823.098C869.903 823.959 869.289 824.47 869.124 824.631C867.65 826.034 865.181 828.006 861.716 830.547ZM928.76 736.595C931.448 734.261 933.961 732.237 936.297 730.524C943.727 725.078 950.201 722.43 955.721 722.581C961.24 722.733 965.472 724.817 968.417 728.833C971.901 733.585 972.726 738.813 970.893 744.516C969.04 750.192 965.187 755.177 959.332 759.469C958.256 760.258 956.377 761.494 953.696 763.177C951.867 764.316 949.692 765.809 947.172 767.657C946.069 768.465 944.063 770.077 941.152 772.494L932.197 779.603L929.966 776.395C930.376 775.853 931.031 775.15 931.933 774.288C933.631 772.64 934.772 771.278 935.357 770.204C935.596 769.1 933.927 766.106 930.347 761.223C923.553 751.955 917.617 743.996 912.54 737.346C907.469 730.649 904.651 727.246 904.086 727.136C903.528 726.98 902.472 727.411 900.917 728.429C900.321 728.826 898.928 729.625 896.741 730.825L894.573 728.116L896.316 726.777C898.416 725.238 901.371 723.294 905.179 720.946L908.66 718.757C909.421 718.199 910.555 717.267 912.06 715.962L914.239 714.062C915.704 712.867 916.709 712.009 917.256 711.487C918.078 710.682 919.041 709.876 920.143 709.067L920.789 709.866L921.692 711.262C921.781 711.439 921.941 711.685 922.172 712C918.714 715.706 916.889 717.952 916.698 718.737C916.533 719.504 917.163 720.859 918.587 722.801L920.07 724.741C920.835 725.674 921.823 726.968 923.036 728.622L928.76 736.595ZM947.499 761C949.698 760.477 951.547 759.667 953.043 758.57C961.549 752.334 963.108 745.541 957.719 738.19C952.022 730.419 944.881 729.68 936.296 735.974C933.986 737.667 932.376 739.05 931.466 740.12C932.144 741.157 932.696 741.963 933.119 742.541L935.017 744.964L939.25 750.821L945.315 758.847L945.777 759.477C946.181 760.028 946.755 760.536 947.499 761ZM983.042 741.845L980.963 739.01C981.373 738.467 982.075 737.609 983.071 736.435C984.47 734.764 985.426 733.397 985.939 732.335C985.814 731.175 985.223 729.873 984.165 728.429L980.719 723.811L974.215 714.775L972.617 712.677C968.99 707.344 967.119 704.599 967.003 704.441L963.085 699.262L961.644 697.049L958.156 692.704L956.875 691.039C956.657 690.796 956.257 690.443 955.676 689.981C954.234 690.271 952.257 691.236 949.746 692.876C949.149 693.273 948.661 693.57 948.281 693.768L945.622 690.389L957.231 682.605C958.661 681.638 959.547 681.029 959.888 680.779C961.437 679.643 963.841 677.719 967.1 675.007C968.92 673.471 970.07 672.507 970.549 672.115C970.941 672.595 971.262 673.005 971.513 673.346C971.84 673.793 972.237 674.389 972.704 675.137C971.923 676.274 970.976 677.514 969.861 678.856C968.753 680.152 967.891 681.289 967.275 682.265C967.617 683.063 968.26 684.106 969.203 685.392C970.031 686.521 970.744 687.411 971.342 688.062C974.516 692.557 976.979 695.998 978.73 698.387L986.391 708.755L990.141 714.118L995.994 721.936L997.052 723.462C997.206 723.672 997.479 723.935 997.873 724.252C999.725 723.419 1001.36 722.587 1002.76 721.756C1003.02 721.609 1003.9 721.127 1005.4 720.31C1006.08 721.021 1006.61 721.639 1007 722.164C1007.21 722.453 1007.52 722.909 1007.94 723.532C1007.6 723.782 1007.35 723.987 1007.18 724.148C1006.38 724.817 1005.91 725.199 1005.78 725.295C1005.6 725.43 1005.23 725.641 1004.67 725.928C1004.27 726.145 1002.39 727.241 999.03 729.216L992.002 734.247C990.611 735.267 988.685 736.88 986.226 739.087C984.609 740.515 983.547 741.434 983.042 741.845ZM1021.5 691.734C1025.13 667.397 1027.29 651.183 1027.98 643.091C1026.55 641.148 1025.67 640.081 1025.33 639.888C1024.97 639.669 1024.29 639.659 1023.31 639.856C1022.3 640.028 1020.55 640.643 1018.06 641.704C1016.86 642.218 1016.06 642.525 1015.65 642.625C1014.99 641.615 1014.55 640.79 1014.32 640.149L1015.39 639.301C1017.6 637.685 1019.1 636.646 1019.89 636.186C1022.16 634.928 1024.33 633.539 1026.4 632.019C1029.76 629.555 1032.73 627.159 1035.3 624.83C1036.24 623.974 1037.02 623.325 1037.62 622.883C1038.2 622.459 1039.06 621.892 1040.19 621.182C1040.93 622.251 1041.55 623.231 1042.04 624.122C1039.51 626.946 1037.92 628.902 1037.26 629.988C1036.61 631.03 1036.64 632.036 1037.36 633.007L1041.54 638.717L1047.99 647.431L1051.58 652.49L1056.89 659.491L1060.99 665.083L1064.48 669.672C1065.15 670.591 1065.9 671.661 1066.71 672.881C1067.38 672.634 1067.98 672.39 1068.53 672.148C1071.39 670.864 1073.64 670.036 1075.31 669.664L1077.45 672.334L1075.78 673.614C1075.34 673.941 1074.81 674.291 1074.19 674.661L1071.12 676.669C1068.8 678.011 1065.27 680.414 1060.54 683.878C1058.13 685.649 1056.34 687.085 1055.16 688.185C1053.65 689.582 1052.71 690.405 1052.37 690.655C1052.08 690.867 1051.62 691.086 1050.98 691.314C1050.08 690.034 1049.52 689.133 1049.3 688.61L1051.52 686.016L1052.85 684.615C1054.31 683.14 1055.22 682.128 1055.59 681.578C1054.51 679.385 1051.27 674.613 1045.88 667.262L1037.32 655.674L1032.03 648.292L1025.28 696.893C1027.46 699.814 1028.63 701.321 1028.78 701.414C1029.07 701.482 1029.63 701.277 1030.45 700.797L1033.29 699.315C1035.86 698.079 1037.34 697.458 1037.74 697.449C1038.26 697.995 1038.6 698.373 1038.75 698.583C1039 698.924 1039.3 699.435 1039.63 700.116L1037.22 701.945C1036.22 702.677 1034.76 703.628 1032.83 704.798L1029.85 706.924L1027.76 708.278L1024.09 710.787C1022.93 711.634 1021.58 712.742 1020.05 714.112C1018.48 715.502 1016.29 717.226 1013.48 719.285C1012.89 718.471 1012.28 717.482 1011.67 716.316C1011.87 716.09 1012.36 715.607 1013.15 714.867L1014.61 713.311C1016.06 711.81 1017.07 710.58 1017.66 709.623C1014.29 704.469 1011.24 700.041 1008.53 696.339L1004.69 691.102L995.051 677.705C992.106 673.688 989.431 670.342 987.025 667.665C986.883 667.527 986.589 667.319 986.143 667.041C985.928 667.077 985.653 667.198 985.319 667.403C985.063 667.55 984.785 667.693 984.484 667.833C983.122 668.508 981.936 669.176 980.927 669.835L980.22 670.111C979.428 670.571 978.812 670.861 978.375 670.98C977.738 670.276 977.342 669.819 977.189 669.609C976.958 669.294 976.719 668.803 976.472 668.136C976.953 667.582 977.522 667.064 978.179 666.583C980.095 665.178 982.413 663.66 985.133 662.029C987.597 660.546 989.591 659.246 991.113 658.129C993.24 656.57 995.128 655.045 996.779 653.552C998.811 651.699 1000.02 650.628 1000.42 650.34C1000.92 649.974 1001.59 649.578 1002.45 649.151L1003.36 650.304C1003.67 650.724 1003.99 651.274 1004.33 651.955L998.204 658.138C997.848 658.48 998.064 659.27 998.852 660.509C999.639 661.748 1000.63 663.181 1001.82 664.809L1003.22 666.631L1005.78 670.204L1007.32 672.223L1009.16 674.987C1009.41 675.329 1009.89 675.926 1010.6 676.781C1011.52 677.923 1012.4 679.072 1013.25 680.228C1013.94 681.173 1014.61 682.137 1015.25 683.121L1016.63 685.255L1021.5 691.734ZM988.551 644.146C987.743 643.043 987.44 641.832 987.643 640.512C987.873 639.174 988.552 638.091 989.681 637.263C990.626 636.57 991.596 636.242 992.592 636.279C993.588 636.316 995.281 636.891 997.671 638.004C1000.91 639.505 1003.37 639.639 1005.05 638.407C1006.73 637.175 1007.33 634.799 1006.85 631.278C1006.55 628.996 1006.5 627.312 1006.72 626.227C1006.94 625.097 1007.57 624.147 1008.62 623.377C1009.72 622.569 1010.93 622.289 1012.24 622.537C1013.54 622.76 1014.58 623.409 1015.37 624.486C1016.93 626.612 1016.82 629.193 1015.05 632.227C1013.26 635.235 1010.55 638.067 1006.93 640.723C1002.99 643.61 999.322 645.432 995.922 646.189C992.547 646.927 990.091 646.246 988.551 644.146ZM653.321 1041.88L655.763 1040.09C656.158 1040.24 656.444 1040.36 656.619 1040.43C658.277 1041.15 659.448 1041.57 660.131 1041.67C660.549 1041.53 662.386 1040.26 665.641 1037.87C667.663 1036.39 669.451 1035.06 671.007 1033.88L671.708 1033.18L676.444 1029.65L685.402 1023.21L697.57 1014.28L699.634 1012.23C699.802 1011.74 699.708 1010.84 699.351 1009.53C699.283 1009.22 699.186 1008.78 699.062 1008.23L700.766 1006.92C701.029 1006.72 701.432 1006.45 701.976 1006.09C703.331 1007.88 705.345 1010.6 708.02 1014.25L710.629 1017.73L712.062 1019.77C712.563 1020.45 712.943 1021.08 713.204 1021.65C712.378 1022.78 711.586 1023.69 710.83 1024.36C709.397 1023.84 707.561 1022.9 705.323 1021.56C703.112 1020.19 701.824 1019.48 701.46 1019.43C700.894 1019.31 700.363 1019.36 699.866 1019.56C699.14 1019.89 696.309 1021.87 691.373 1025.49C690.638 1026.03 689.758 1026.75 688.732 1027.67C689.325 1028.81 689.863 1029.7 690.344 1030.36L694.252 1035.61L702.739 1047.18L712.048 1059.55L715.762 1064.7C717.09 1066.51 718.248 1067.76 719.237 1068.45C719.791 1068.33 720.691 1067.93 721.935 1067.26C722.165 1067.13 723.29 1066.63 725.311 1065.75C726.234 1065.36 727.083 1065.06 727.86 1064.85C728.685 1065.7 729.174 1066.23 729.328 1066.44C729.501 1066.68 729.712 1067.05 729.96 1067.55C729.402 1068 728.939 1068.36 728.571 1068.63C725.867 1070.61 723.503 1072.2 721.478 1073.41C719.433 1074.58 715.93 1076.99 710.969 1080.63C710.181 1081.2 707.986 1083.05 704.384 1086.18C702.965 1087.38 702.032 1088.15 701.586 1088.47C701.271 1088.1 701.023 1087.82 700.843 1087.63L700.139 1086.75L699.909 1086.43C699.928 1085.25 700.604 1083.89 701.936 1082.34C704.185 1079.69 705.642 1077.71 706.307 1076.41C706.204 1075.72 705.88 1074.95 705.336 1074.1C703.211 1070.81 699.626 1065.73 694.584 1058.85L683.475 1044.11C680.472 1040.02 678.575 1037.59 677.782 1036.84C677.556 1036.65 677.339 1036.54 677.131 1036.53C676.904 1036.5 676.662 1036.55 676.407 1036.7C675.516 1037.19 672.826 1039.08 668.336 1042.38C665.869 1044.18 664.388 1045.63 663.894 1046.72C663.246 1048.21 662.862 1051.23 662.74 1055.8C662.7 1057.12 662.522 1057.9 662.207 1058.13C660.538 1058.39 659.388 1058.44 658.758 1058.3C658.321 1055.99 656.948 1051.75 654.639 1045.58C653.962 1043.77 653.522 1042.54 653.321 1041.88ZM727.932 1028.78C725.545 1025.52 723.779 1021.79 722.633 1017.59C721.82 1014.55 721.519 1011.44 721.729 1008.26C721.94 1005.08 722.734 1001.81 724.112 998.46C725.47 995.083 727.208 992.113 729.326 989.551C731.425 986.964 734.076 984.496 737.279 982.148C742.739 978.144 748.229 975.694 753.746 974.797C759.264 973.901 764.458 974.351 769.328 976.149C775.651 978.497 780.64 982.165 784.297 987.153C789.744 994.582 791.877 1002.81 790.698 1011.82C789.545 1020.82 784.467 1028.62 775.462 1035.22C773.23 1036.86 771.037 1038.24 768.883 1039.38C767.259 1040.25 765.761 1040.9 764.388 1041.34C761.912 1042.15 760.517 1042.59 760.204 1042.66C756.149 1043.13 752.63 1043.14 749.646 1042.71C746.662 1042.27 743.778 1041.42 740.992 1040.15C739.45 1039.42 737.105 1037.79 733.955 1035.26C731.922 1033.64 729.914 1031.48 727.932 1028.78ZM738.64 987.143C736.356 988.818 734.729 990.838 733.759 993.204C732.77 995.543 732.301 997.683 732.351 999.624C732.452 1002.9 733.14 1006.07 734.416 1009.13C735.672 1012.16 737.657 1015.53 740.37 1019.23C742.026 1021.49 743.301 1023.04 744.197 1023.88C744.48 1024.15 744.954 1024.63 745.617 1025.32C747.277 1027.09 748.592 1028.3 749.562 1028.96C753.135 1031.47 755.446 1032.94 756.496 1033.39C758.265 1034.15 760.406 1034.62 762.917 1034.79C764.205 1034.9 765.809 1034.69 767.729 1034.17C769.629 1033.63 771.328 1032.81 772.824 1031.71C775.659 1029.63 777.804 1027.05 779.257 1023.97C780.717 1020.84 781.017 1017.14 780.159 1012.89C779.3 1008.64 777.004 1003.96 773.27 998.869C771.731 996.769 769.498 994.026 766.572 990.641L765.827 990.037C765.594 989.885 765.068 989.443 764.25 988.712C760.122 985.118 755.852 983.203 751.44 982.966C747.055 982.71 742.788 984.102 738.64 987.143ZM810.536 1008.91L808.305 1005.7C808.82 1005.08 809.475 1004.38 810.272 1003.59C811.805 1002.1 812.946 1000.74 813.695 999.505C813.62 998.632 813.433 997.881 813.134 997.253C812.266 995.629 810.783 993.386 808.686 990.524L796.337 973.846C795.067 972.113 791.655 967.652 786.102 960.462C784.606 958.531 783.58 957.407 783.023 957.088C782.829 956.989 782.602 956.953 782.341 956.983C781.709 957.002 780.796 957.409 779.603 958.203C779.085 958.543 777.692 959.341 775.426 960.599L773.258 957.89L781.935 951.226L794.494 941.353L796.001 940.188C796.297 939.931 796.603 939.687 796.918 939.456C797.18 939.263 797.886 938.766 799.034 937.965L801.554 936.117C803.53 934.628 805.917 933.342 808.716 932.26C809.683 931.873 811.087 931.53 812.926 931.231C814.746 930.906 816.527 930.912 818.268 931.25C820.016 931.543 821.598 932.159 823.014 933.099C824.43 934.039 825.667 935.231 826.725 936.675C827.899 938.276 828.603 939.98 828.837 941.786C829.052 943.566 828.833 945.523 828.178 947.658C827.828 948.722 826.769 950.83 825.003 953.982C829.622 951.968 833.844 951.395 837.669 952.264C841.475 953.106 844.446 954.985 846.583 957.899C847.853 959.631 848.853 961.683 849.582 964.055C850.149 965.819 850.31 967.719 850.067 969.754C849.745 972.452 849.042 974.824 847.958 976.87C846.901 978.896 845.094 981.25 842.539 983.93C841.261 985.271 839.126 987.038 836.133 989.232L829.323 993.982C826.488 996.061 823.21 998.665 819.491 1001.8C818.427 1002.66 815.442 1005.03 810.536 1008.91ZM806.975 965.563C808.141 964.951 809.433 964.125 810.85 963.086C814.788 960.199 817.239 957.292 818.202 954.366C819.145 951.414 818.308 948.153 815.691 944.583C813.843 942.062 811.345 940.664 808.197 940.389C805.049 940.114 801.545 941.391 797.686 944.22C796.583 945.028 795.219 946.251 793.593 947.887C794.036 948.49 794.697 949.338 795.577 950.428C797.344 952.563 799.7 955.639 802.645 959.656L805.031 962.993C805.454 963.57 806.102 964.427 806.975 965.563ZM825.837 990.301C828.064 989.759 829.912 988.949 831.382 987.871C834.375 985.677 836.489 983.441 837.725 981.163C838.942 978.858 839.386 976.575 839.06 974.312C838.733 972.049 837.674 969.697 835.884 967.255C834.037 964.735 832.082 963.06 830.021 962.23C827.168 961.092 824.551 960.852 822.167 961.51C819.764 962.141 816.699 963.823 812.971 966.556C811.317 967.769 810.261 968.724 809.804 969.422L813.355 974.266L817.589 980.123L824.347 989.094C824.681 989.494 825.178 989.897 825.837 990.301ZM861.065 971.378L859.181 968.642C859.564 968.119 860.3 967.277 861.387 966.117C863.119 964.242 864.08 962.992 864.269 962.369C864.485 961.727 864.465 960.571 864.21 958.902L856.892 932.238L848.269 900.902C849.154 900.293 849.991 899.7 850.779 899.123L852.551 897.824L853.425 898.273L872.171 909.474C876.241 911.777 880.086 914.105 883.707 916.455C887.308 918.78 890.305 920.639 892.699 922.032C894.129 922.881 896.208 924.203 898.936 925.997C900.39 926.99 902.344 928.141 904.797 929.45C906.13 930.168 906.996 930.522 907.393 930.513C908.154 930.561 909.108 930.265 910.254 929.627C911.427 928.969 912.803 928.424 914.384 927.992C915.15 928.762 915.687 929.357 915.995 929.777C916.13 929.961 916.328 930.259 916.591 930.672C914.648 932.097 912.441 933.573 909.97 935.102C907.499 936.631 905.331 938.079 903.467 939.446C901.393 940.966 899.916 942.089 899.036 942.816L892.601 948.078L890.729 949.571C890.055 948.652 889.45 947.744 888.913 946.846L892.591 942.696C893.654 941.393 894.222 940.572 894.298 940.234C894.368 939.779 894.278 939.381 894.028 939.04C893.777 938.699 893.452 938.392 893.051 938.121L888.647 935.417L879.877 929.979L864.806 940.968C865.178 942.632 866.297 946.554 868.164 952.733C868.685 954.49 869.128 955.618 869.494 956.117C869.995 956.8 870.534 957.151 871.114 957.17C872.083 957.226 873.498 956.734 875.359 955.693C875.633 955.572 876.671 955.033 878.472 954.076C879.191 955.002 879.685 955.649 879.955 956.016C880.167 956.305 880.362 956.626 880.54 956.98C878.912 958.173 874.863 960.798 868.393 964.856L866.98 966.315C865.269 968.054 863.533 969.569 861.774 970.858L861.065 971.378ZM863.35 935.678C869.55 931.253 873.202 928.637 874.305 927.828L875.261 927.067C872.76 925.308 869.744 923.341 866.213 921.167C862.663 918.967 859.897 917.342 857.916 916.291L863.35 935.678ZM881.494 882.054L879.261 879.09L889.105 872.781L893.29 869.653L894.826 868.527C896.427 867.353 898.867 865.423 902.145 862.737C903.992 861.182 905.165 860.221 905.663 859.856C908.971 857.431 911.6 855.786 913.55 854.922C916.507 853.561 919.158 852.909 921.501 852.967C923.871 853.006 926.383 853.707 929.037 855.071C931.699 856.389 933.703 857.967 935.05 859.805C938.399 864.373 939.679 869.146 938.889 874.125C938.106 879.058 935.522 883.132 931.138 886.346C929.615 887.462 928.023 888.347 926.362 888.999C924.728 889.632 923.037 890.024 921.291 890.174C920.601 889.509 919.766 888.507 918.784 887.168C919.453 886.759 920.046 886.384 920.564 886.045C921.108 885.686 921.577 885.363 921.971 885.074C924.203 883.438 925.628 881.445 926.246 879.095C927.093 876.011 926.199 872.671 923.562 869.075C921.676 866.502 919.69 864.729 917.604 863.756C915.525 862.737 913.67 862.381 912.039 862.689C909.781 863.133 907.603 864.125 905.502 865.665C903.533 867.108 902.34 868.427 901.924 869.62C901.964 870.115 902.047 870.559 902.173 870.951L916.046 889.297L917.122 890.93L918.453 892.497C918.748 892.845 919.156 893.374 919.676 894.083L922.043 897.312L925.864 902.442L930.289 908.643C930.924 909.509 931.859 910.62 933.095 911.974L941.653 907.214C942.22 907.767 942.638 908.227 942.907 908.595C943.196 908.989 943.535 909.588 943.923 910.393C943.344 910.979 942.883 911.397 942.542 911.648C941.728 912.244 940.125 913.278 937.733 914.75C935.321 916.195 932.671 917.976 929.783 920.093C926.528 922.479 923.584 924.961 920.951 927.536C920.51 927.981 919.771 928.624 918.733 929.465C918.07 928.781 917.604 928.255 917.334 927.887C917.161 927.651 916.918 927.264 916.605 926.727L918.429 924.178C919.718 922.467 920.706 920.814 921.394 919.22C921.072 918.286 920.68 917.503 920.218 916.873C920.026 916.611 919.791 916.318 919.515 915.996C918.892 915.202 918.042 914.069 916.964 912.599L908.733 901.62L899.149 889.454C894.615 883.656 892.123 880.559 891.671 880.163C890.93 879.537 890.182 879.177 889.427 879.084C888.654 878.965 887.675 879.198 886.49 879.784C884.041 881.014 882.376 881.771 881.494 882.054Z" fill="white"/>
</svg>
